<svg width="24" height="25" viewBox="0 0 24 25" fill="none" xmlns="http://www.w3.org/2000/svg">
<g id="book-closed">
<path id="Icon" d="M20 19.554V16.554H7C5.34315 16.554 4 17.8971 4 19.554M8.8 22.554H16.8C17.9201 22.554 18.4802 22.554 18.908 22.336C19.2843 22.1442 19.5903 21.8383 19.782 21.4619C20 21.0341 20 20.4741 20 19.354V5.75395C20 4.63385 20 4.0738 19.782 3.64597C19.5903 3.26965 19.2843 2.96369 18.908 2.77194C18.4802 2.55396 17.9201 2.55396 16.8 2.55396H8.8C7.11984 2.55396 6.27976 2.55396 5.63803 2.88094C5.07354 3.16856 4.6146 3.6275 4.32698 4.19198C4 4.83372 4 5.6738 4 7.35396V17.754C4 19.4341 4 20.2742 4.32698 20.9159C4.6146 21.4804 5.07354 21.9394 5.63803 22.227C6.27976 22.554 7.11984 22.554 8.8 22.554Z" stroke="black" stroke-width="2" stroke-linecap="round" stroke-linejoin="round"/>
</g>
</svg>
