<svg width="24" height="25" viewBox="0 0 24 25" fill="none" xmlns="http://www.w3.org/2000/svg">
<g id="clipboard">
<path id="Icon" d="M16 4.55396C16.93 4.55396 17.395 4.55396 17.7765 4.65618C18.8117 4.93358 19.6204 5.74222 19.8978 6.7775C20 7.159 20 7.62398 20 8.55396V17.754C20 19.4341 20 20.2742 19.673 20.9159C19.3854 21.4804 18.9265 21.9394 18.362 22.227C17.7202 22.554 16.8802 22.554 15.2 22.554H8.8C7.11984 22.554 6.27976 22.554 5.63803 22.227C5.07354 21.9394 4.6146 21.4804 4.32698 20.9159C4 20.2742 4 19.4341 4 17.754V8.55396C4 7.62398 4 7.159 4.10222 6.7775C4.37962 5.74222 5.18827 4.93358 6.22354 4.65618C6.60504 4.55396 7.07003 4.55396 8 4.55396M9.6 6.55396H14.4C14.9601 6.55396 15.2401 6.55396 15.454 6.44496C15.6422 6.34909 15.7951 6.19611 15.891 6.00795C16 5.79403 16 5.51401 16 4.95396V4.15396C16 3.5939 16 3.31388 15.891 3.09996C15.7951 2.9118 15.6422 2.75882 15.454 2.66295C15.2401 2.55396 14.9601 2.55396 14.4 2.55396H9.6C9.03995 2.55396 8.75992 2.55396 8.54601 2.66295C8.35785 2.75882 8.20487 2.9118 8.10899 3.09996C8 3.31388 8 3.5939 8 4.15396V4.95396C8 5.51401 8 5.79403 8.10899 6.00795C8.20487 6.19611 8.35785 6.34909 8.54601 6.44496C8.75992 6.55396 9.03995 6.55396 9.6 6.55396Z" stroke="black" stroke-width="2" stroke-linecap="round" stroke-linejoin="round"/>
</g>
</svg>
