<svg width="24" height="25" viewBox="0 0 24 25" fill="none" xmlns="http://www.w3.org/2000/svg">
<g id="dots-horizontal">
<g id="Icon">
<path d="M12 13.554C12.5523 13.554 13 13.1062 13 12.554C13 12.0017 12.5523 11.554 12 11.554C11.4477 11.554 11 12.0017 11 12.554C11 13.1062 11.4477 13.554 12 13.554Z" stroke="black" stroke-width="2" stroke-linecap="round" stroke-linejoin="round"/>
<path d="M19 13.554C19.5523 13.554 20 13.1062 20 12.554C20 12.0017 19.5523 11.554 19 11.554C18.4477 11.554 18 12.0017 18 12.554C18 13.1062 18.4477 13.554 19 13.554Z" stroke="black" stroke-width="2" stroke-linecap="round" stroke-linejoin="round"/>
<path d="M5 13.554C5.55228 13.554 6 13.1062 6 12.554C6 12.0017 5.55228 11.554 5 11.554C4.44772 11.554 4 12.0017 4 12.554C4 13.1062 4.44772 13.554 5 13.554Z" stroke="black" stroke-width="2" stroke-linecap="round" stroke-linejoin="round"/>
</g>
</g>
</svg>
