<svg width="24" height="25" viewBox="0 0 24 25" fill="none" xmlns="http://www.w3.org/2000/svg">
<g id="folder">
<path id="Icon" d="M13 7.55396L11.8845 5.32287C11.5634 4.68076 11.4029 4.35969 11.1634 4.12512C10.9516 3.91769 10.6963 3.75993 10.4161 3.66326C10.0992 3.55396 9.74021 3.55396 9.02229 3.55396H5.2C4.0799 3.55396 3.51984 3.55396 3.09202 3.77194C2.71569 3.96369 2.40973 4.26965 2.21799 4.64597C2 5.0738 2 5.63385 2 6.75396V7.55396M2 7.55396H17.2C18.8802 7.55396 19.7202 7.55396 20.362 7.88094C20.9265 8.16856 21.3854 8.6275 21.673 9.19198C22 9.83372 22 10.6738 22 12.354V16.754C22 18.4341 22 19.2742 21.673 19.9159C21.3854 20.4804 20.9265 20.9394 20.362 21.227C19.7202 21.554 18.8802 21.554 17.2 21.554H6.8C5.11984 21.554 4.27976 21.554 3.63803 21.227C3.07354 20.9394 2.6146 20.4804 2.32698 19.9159C2 19.2742 2 18.4341 2 16.754V7.55396Z" stroke="black" stroke-width="2" stroke-linecap="round" stroke-linejoin="round"/>
</g>
</svg>
