<svg width="24" height="25" viewBox="0 0 24 25" fill="none" xmlns="http://www.w3.org/2000/svg">
<g id="home-05">
<path id="Icon" d="M12.9823 3.31798C12.631 3.04473 12.4553 2.90811 12.2613 2.85559C12.0902 2.80925 11.9098 2.80925 11.7387 2.85559C11.5447 2.90811 11.369 3.04473 11.0177 3.31798L4.23539 8.59311C3.78202 8.94573 3.55534 9.12204 3.39203 9.34284C3.24737 9.53843 3.1396 9.75877 3.07403 9.99304C3 10.2575 3 10.5447 3 11.119V18.354C3 19.4741 3 20.0341 3.21799 20.462C3.40973 20.8383 3.71569 21.1442 4.09202 21.336C4.51984 21.554 5.0799 21.554 6.2 21.554H8.2C8.48003 21.554 8.62004 21.554 8.727 21.4995C8.82108 21.4515 8.89757 21.375 8.9455 21.281C9 21.174 9 21.034 9 20.754V14.154C9 13.5939 9 13.3139 9.10899 13.1C9.20487 12.9118 9.35785 12.7588 9.54601 12.663C9.75992 12.554 10.0399 12.554 10.6 12.554H13.4C13.9601 12.554 14.2401 12.554 14.454 12.663C14.6422 12.7588 14.7951 12.9118 14.891 13.1C15 13.3139 15 13.5939 15 14.154V20.754C15 21.034 15 21.174 15.0545 21.281C15.1024 21.375 15.1789 21.4515 15.273 21.4995C15.38 21.554 15.52 21.554 15.8 21.554H17.8C18.9201 21.554 19.4802 21.554 19.908 21.336C20.2843 21.1442 20.5903 20.8383 20.782 20.462C21 20.0341 21 19.4741 21 18.354V11.119C21 10.5447 21 10.2575 20.926 9.99304C20.8604 9.75877 20.7526 9.53843 20.608 9.34284C20.4447 9.12204 20.218 8.94573 19.7646 8.59311L12.9823 3.31798Z" stroke="black" stroke-width="2" stroke-linecap="round" stroke-linejoin="round"/>
</g>
</svg>
