<svg width="24" height="25" viewBox="0 0 24 25" fill="none" xmlns="http://www.w3.org/2000/svg">
<g id="message-smile-square">
<path id="Icon" d="M8.5 13.054C8.5 13.054 9.8125 14.554 12 14.554C14.1875 14.554 15.5 13.054 15.5 13.054M14.75 8.05396H14.76M9.25 8.05396H9.26M7 18.554V20.8895C7 21.4223 7 21.6887 7.10923 21.8256C7.20422 21.9446 7.34827 22.0138 7.50054 22.0136C7.67563 22.0135 7.88367 21.847 8.29976 21.5142L10.6852 19.6058C11.1725 19.2159 11.4162 19.021 11.6875 18.8824C11.9282 18.7594 12.1844 18.6696 12.4492 18.6152C12.7477 18.554 13.0597 18.554 13.6837 18.554H16.2C17.8802 18.554 18.7202 18.554 19.362 18.227C19.9265 17.9394 20.3854 17.4804 20.673 16.9159C21 16.2742 21 15.4341 21 13.754V8.35396C21 6.6738 21 5.83372 20.673 5.19198C20.3854 4.6275 19.9265 4.16856 19.362 3.88094C18.7202 3.55396 17.8802 3.55396 16.2 3.55396H7.8C6.11984 3.55396 5.27976 3.55396 4.63803 3.88094C4.07354 4.16856 3.6146 4.6275 3.32698 5.19198C3 5.83372 3 6.6738 3 8.35395V14.554C3 15.4839 3 15.9489 3.10222 16.3304C3.37962 17.3657 4.18827 18.1743 5.22354 18.4517C5.60504 18.554 6.07003 18.554 7 18.554ZM15.25 8.05396C15.25 8.3301 15.0261 8.55396 14.75 8.55396C14.4739 8.55396 14.25 8.3301 14.25 8.05396C14.25 7.77781 14.4739 7.55396 14.75 7.55396C15.0261 7.55396 15.25 7.77781 15.25 8.05396ZM9.75 8.05396C9.75 8.3301 9.52614 8.55396 9.25 8.55396C8.97386 8.55396 8.75 8.3301 8.75 8.05396C8.75 7.77781 8.97386 7.55396 9.25 7.55396C9.52614 7.55396 9.75 7.77781 9.75 8.05396Z" stroke="black" stroke-width="2" stroke-linecap="round" stroke-linejoin="round"/>
</g>
</svg>
